<mxfile host="app.diagrams.net" agent="Mozilla/5.0 (X11; Linux x86_64) AppleWebKit/537.36 (KHTML, like Gecko) Chrome/128.0.0.0 Safari/537.36" version="24.7.16">
  <diagram name="Page-1" id="IBPHzoPeUKKcwenzTVv1">
    <mxGraphModel grid="1" page="1" gridSize="10" guides="1" tooltips="1" connect="1" arrows="1" fold="1" pageScale="1" pageWidth="827" pageHeight="1169" math="0" shadow="0">
      <root>
        <mxCell id="0" />
        <mxCell id="1" parent="0" />
        <mxCell id="QSpioQ0liRO3xgtSMFwK-1" value="" style="endArrow=classic;html=1;rounded=0;entryX=0;entryY=0.5;entryDx=0;entryDy=0;exitX=0;exitY=1;exitDx=0;exitDy=0;" edge="1" parent="1" source="QSpioQ0liRO3xgtSMFwK-2" target="QSpioQ0liRO3xgtSMFwK-16">
          <mxGeometry width="50" height="50" relative="1" as="geometry">
            <mxPoint x="145" y="250.29" as="sourcePoint" />
            <mxPoint x="236" y="250.28999999999996" as="targetPoint" />
          </mxGeometry>
        </mxCell>
        <mxCell id="QSpioQ0liRO3xgtSMFwK-2" value="Millipascal source" style="text;html=1;align=center;verticalAlign=middle;whiteSpace=wrap;rounded=0;" vertex="1" parent="1">
          <mxGeometry x="170" y="220.29" width="60" height="30" as="geometry" />
        </mxCell>
        <mxCell id="QSpioQ0liRO3xgtSMFwK-14" style="edgeStyle=orthogonalEdgeStyle;rounded=0;orthogonalLoop=1;jettySize=auto;html=1;exitX=1;exitY=0.5;exitDx=0;exitDy=0;entryX=0;entryY=0.5;entryDx=0;entryDy=0;" edge="1" parent="1" source="QSpioQ0liRO3xgtSMFwK-16" target="QSpioQ0liRO3xgtSMFwK-10">
          <mxGeometry relative="1" as="geometry">
            <mxPoint x="340" y="250.28999999999996" as="sourcePoint" />
          </mxGeometry>
        </mxCell>
        <mxCell id="QSpioQ0liRO3xgtSMFwK-7" style="edgeStyle=orthogonalEdgeStyle;rounded=0;orthogonalLoop=1;jettySize=auto;html=1;exitX=0.5;exitY=1;exitDx=0;exitDy=0;" edge="1" parent="1">
          <mxGeometry relative="1" as="geometry">
            <mxPoint x="385" y="280.29" as="sourcePoint" />
            <mxPoint x="385" y="280.29" as="targetPoint" />
          </mxGeometry>
        </mxCell>
        <mxCell id="QSpioQ0liRO3xgtSMFwK-9" style="edgeStyle=orthogonalEdgeStyle;rounded=0;orthogonalLoop=1;jettySize=auto;html=1;exitX=1;exitY=0.5;exitDx=0;exitDy=0;" edge="1" parent="1" source="QSpioQ0liRO3xgtSMFwK-10">
          <mxGeometry relative="1" as="geometry">
            <mxPoint x="530" y="250" as="targetPoint" />
          </mxGeometry>
        </mxCell>
        <mxCell id="QSpioQ0liRO3xgtSMFwK-10" value="&lt;div&gt;frontend,&lt;/div&gt;&lt;div&gt;stage 1&lt;/div&gt;" style="rounded=1;whiteSpace=wrap;html=1;strokeWidth=2;fillColor=none;" vertex="1" parent="1">
          <mxGeometry x="390" y="220.29" width="90" height="60" as="geometry" />
        </mxCell>
        <mxCell id="QSpioQ0liRO3xgtSMFwK-11" style="edgeStyle=orthogonalEdgeStyle;rounded=0;orthogonalLoop=1;jettySize=auto;html=1;exitX=0.5;exitY=1;exitDx=0;exitDy=0;" edge="1" parent="1" source="QSpioQ0liRO3xgtSMFwK-10" target="QSpioQ0liRO3xgtSMFwK-10">
          <mxGeometry relative="1" as="geometry" />
        </mxCell>
        <mxCell id="QSpioQ0liRO3xgtSMFwK-15" value="typed module" style="text;html=1;align=center;verticalAlign=middle;whiteSpace=wrap;rounded=0;" vertex="1" parent="1">
          <mxGeometry x="330" y="220.29" width="60" height="30" as="geometry" />
        </mxCell>
        <mxCell id="QSpioQ0liRO3xgtSMFwK-16" value="&lt;div&gt;frontend,&lt;/div&gt;&lt;div&gt;stage 0&lt;/div&gt;" style="rounded=1;whiteSpace=wrap;html=1;strokeWidth=2;fillColor=none;" vertex="1" parent="1">
          <mxGeometry x="240" y="220.29000000000002" width="90" height="60" as="geometry" />
        </mxCell>
        <mxCell id="91Ityu3No-83nywkaG3x-1" value="PIR +&lt;br&gt;ASM" style="text;html=1;align=center;verticalAlign=middle;whiteSpace=wrap;rounded=0;" vertex="1" parent="1">
          <mxGeometry x="482" y="220.29000000000002" width="36" height="30" as="geometry" />
        </mxCell>
      </root>
    </mxGraphModel>
  </diagram>
</mxfile>
